# AST/ASF file generated using VICON BodyLanguage
# -----------------------------------------------
:version 1.10
:name VICON
:units
  mass 1.0
  length 0.45
  angle deg
:documentation
   .ast/.asf automatically generated from VICON data using
   VICON BodyBuilder and BodyLanguage model FoxedUp or BRILLIANT.MOD
:root
   order TX TY TZ RX RY RZ
   axis XYZ
   position 0 0 0  
   orientation 0 0 0 
:bonedata
  begin
     id 1 
     name lhipjoint
     direction 0.558404 -0.748506 0.357664 
     length 2.4234 
     axis 0 0 0  XYZ
  end
  begin
     id 2 
     name lfemur
     direction 0.34202 -0.939693 0  
     length 7.14567  
     axis 0 0 20  XYZ
    dof rx ry rz
    limits (-160.0 20.0)
           (-70.0 70.0)
           (-60.0 70.0)
  end
  begin
     id 3 
     name ltibia
     direction 0.34202 -0.939693 0   
     length 8.13956   
     axis 0 0 20   XYZ
    dof rx
    limits (-10.0 170.0)
  end
  begin
     id 4 
     name lfoot
     direction 0.0791314 -0.217412 0.972867   
     length 2.00134   
     axis -90 7.62852e-016 20   XYZ
    dof rx rz
    limits (-45.0 90.0)
           (-70.0 20.0)
  end
  begin
     id 5 
     name ltoes
     direction 1.53547e-011 -4.21922e-011 1   
     length 1.00735   
     axis -90 7.62852e-016 20   XYZ
    dof rx
    limits (-90.0 20.0)
  end
  begin
     id 6 
     name rhipjoint
     direction -0.496392 -0.78327 0.374276   
     length 2.31584  
     axis 0 0 0  XYZ 
  end
  begin
     id 7 
     name rfemur
     direction -0.34202 -0.939693 0   
     length 7.47417   
     axis 0 0 -20   XYZ
    dof rx ry rz
    limits (-160.0 20.0)
           (-70.0 70.0)
           (-70.0 60.0)
  end
  begin
     id 8 
     name rtibia
     direction -0.34202 -0.939693 0   
     length 7.69071   
     axis 0 0 -20   XYZ
    dof rx
    limits (-10.0 170.0)
 end
 begin
     id 9 
     name rfoot
     direction -0.103069 -0.28318 0.953512   
     length 2.16135  
     axis -90 -7.62852e-016 -20   XYZ
    dof rx rz
    limits (-45.0 90.0)
           (-20.0 70.0)
  end
  begin
     id 10 
     name rtoes
     direction -1.53581e-011 -4.21904e-011 1   
     length 1.07867   
     axis -90 -7.62852e-016 -20   XYZ
    dof rx
    limits (-90.0 20.0)
  end
  begin
     id 11 
     name lowerback
     direction -0.0258961 0.994776 -0.0987407   
     length 2.19412   
     axis 0 0 0   XYZ
    dof rx ry rz
    limits (-20.0 45.0)
           (-30.0 30.0)
           (-30.0 30.0)
  end
  begin
     id 12 
     name upperback
     direction 0.0402454 0.999185 0.00320666   
     length 2.18445   
     axis 0 0 0   XYZ
    dof rx ry rz
    limits (-20.0 45.0)
           (-30.0 30.0)
           (-30.0 30.0)
  end
  begin
     id 13 
     name thorax
     direction 0.0519376 0.997415 0.0496558   
     length 2.21487   
     axis 0 0 0   XYZ
    dof rx ry rz
    limits (-20.0 45.0)
           (-30.0 30.0)
           (-30.0 30.0)
  end
  begin
     id 14 
     name lowerneck
     direction -0.0921276 0.983211 0.157506   
     length 1.61201   
     axis 0 0 0   XYZ
    dof rx ry rz
    limits (-20.0 45.0)
           (-30.0 30.0)
           (-30.0 30.0)
  end
  begin
     id 15 
     name upperneck
     direction 0.0820814 0.98162 -0.172292   
     length 1.65275   
     axis 0 0 0   XYZ
    dof rx ry rz
    limits (-20.0 45.0)
           (-30.0 30.0)
           (-30.0 30.0)
  end
  begin
     id 16
     name head
     direction 0.0336554 0.996413 -0.0776455  
     length 1.66415  
     axis 0 0 0   XYZ
    dof rx ry rz
    limits (-20.0 45.0)
           (-30.0 30.0)
           (-30.0 30.0)
  end
  begin
     id 17 
     name lclavicle
     direction 0.94696 0.284418 -0.149576  
     length 3.41447  
     axis 0 0 0   XYZ
    dof ry rz
    limits (-20.0 10.0)
           (0.0 20.0)
  end
  begin
     id 18 
     name lhumerus
     direction 1 -0.000130264 -9.81312e-005   
     length 5.19964   
     axis 180 -30 -90   XYZ
    dof rx ry rz
    limits (-60.0 90.0)
           (-90.0 90.0)
           (-90.0 90.0)
  end
  begin
     id 19
     name lradius
     direction 1 -4.48961e-011 1.43854e-026   
     length 3.32189   
     axis 180 -30 -90   XYZ
    dof rx
    limits (-10.0 170.0)
  end
  begin
     id 20
     name lwrist
     direction 1 -4.48958e-011 3.1502e-026   
     length 1.66095   
     axis -1.97692e-014 90 90   XYZ
    dof ry
    limits (-180.0 0.0)
 end
  begin
     id 21 
     name lhand
     direction 1 -4.48927e-011 6.3004e-026   
     length 0.645616   
     axis -4.02019e-014 90 90   XYZ
    dof rx rz
    limits (-90.0 90.0)
           (-45.0 45.0)
  end
  begin
     id 22 
     name lfingers
     direction 1 -4.4904e-011 1.26008e-025   
     length 0.520512   
     axis -8.04039e-014 90 90   XYZ
    dof rx
    limits (0.0 90.0)
  end
  begin
     id 23
     name lthumb
     direction 0.707107 -6.34947e-011 0.707107   
     length 0.747354   
     axis -90 45 2.85299e-015   XYZ
    dof rx rz
    limits (-45.0 45.0)
           (-45.0 45.0)
  end
  begin
     id 24 
     name rclavicle
     direction -0.909391 0.383475 -0.161107   
     length 3.25176  
     axis 0 0 0   XYZ 
    dof ry rz
    limits (-10.0 20.0)
           (-20.0 0.0)
  end
  begin
     id 25 
     name rhumerus
     direction -1 -4.48965e-011 -1.81384e-027  
     length 5.6595   
     axis 180 30 90   XYZ
    dof rx ry rz
    limits (-90.0 60.0)
           (-90.0 90.0)
           (-90.0 90.0)
  end
  begin
     id 26 
     name rradius
     direction -1 -4.48996e-011 -8.09397e-027   
     length 3.37604   
     axis 180 30 90   XYZ
    dof rx
    limits (-10.0 170.0)
  end
  begin
     id 27 
     name rwrist
     direction -1 -4.48927e-011 -1.56669e-026   
     length 1.68802   
     axis 1.21142e-014 -90 -90   XYZ
    dof ry
    limits (-180.0 0.0)
  end
  begin
     id 28
     name rhand
     direction -1 -4.48912e-011 -3.13339e-026   
     length 0.824702   
     axis 1.99937e-014 -90 -90   XYZ
    dof rx rz
    limits (-90.0 90.0)
           (-45.0 45.0)
  end
  begin
     id 29
     name rfingers
     direction -1 -4.49011e-011 -6.26677e-026   
     length 0.664896   
     axis 3.99874e-014 -90 -90   XYZ
    dof rx
    limits (0.0 90.0)
  end
  begin
     id 30
     name rthumb
     direction -0.707107 -6.34931e-011 0.707107   
     length 0.954662   
     axis -90 -45 -2.85299e-015   XYZ
    dof rx rz
    limits (-45.0 45.0)
           (-45.0 45.0)
  end
:hierarchy
  begin
    root lhipjoint rhipjoint lowerback
    lhipjoint lfemur
    lfemur ltibia
    ltibia lfoot
    lfoot ltoes
    rhipjoint rfemur
    rfemur rtibia
    rtibia rfoot
    rfoot rtoes
    lowerback upperback
    upperback thorax
    thorax lowerneck lclavicle rclavicle
    lowerneck upperneck
    upperneck head
    lclavicle lhumerus
    lhumerus lradius
    lradius lwrist
    lwrist lhand lthumb
    lhand lfingers
    rclavicle rhumerus
    rhumerus rradius
    rradius rwrist
    rwrist rhand rthumb
    rhand rfingers
  end

#!OML:ASF F:\VICON\USERDATA\INSTALL\rory3\rory3.ASF
:FULLY-SPECIFIED
:DEGREES
312
root 3.55659 14.6048 3.92105 -7.89964 -19.7563 -0.75169
lowerback 18.1073 -3.57196 -5.14373
upperback 5.52074 -5.3361 8.93986
thorax -2.70959 -2.88917 13.9398
lowerneck -4.06148 -6.44088 -12.3723
upperneck 29.202 -8.62834 2.79241
head 10.7559 -5.09801 2.16569
rclavicle 5.80451e-014 7.95139e-015
rhumerus -47.8145 -17.499 -53.1991
rradius 38.2555
rwrist -8.95526
rhand -20.5183 22.761
rfingers 7.12502
rthumb 5.83945 -7.13858
lclavicle 5.80451e-014 7.95139e-015
lhumerus -11.2784 2.07683 89.0538
lradius 37.6759
lwrist 10.5311
lhand -18.2169 31.6279
lfingers 7.12502
lthumb 8.06103 61.4542
rfemur -64.7995 -21.0763 30.6467
rtibia 39.8601
rfoot 22.1683 -11.36
rtoes 48.3164
lfemur -36.0696 11.1332 -44.9858
ltibia 69.6318
lfoot -17.4445 -1.88557
ltoes 36.718
313
root 3.59696 14.6396 4.07816 -8.28892 -18.3978 -0.0274453
lowerback 18.6041 -3.92919 -5.9718
upperback 5.37216 -5.96621 8.64796
thorax -2.90024 -3.18878 14.2765
lowerneck -3.34895 -6.05232 -11.8982
upperneck 28.3572 -8.25058 3.00367
head 10.2426 -4.84886 2.241
rclavicle -9.85972e-014 4.92986e-014
rhumerus -48.623 -18.0067 -53.716
rradius 37.9004
rwrist -9.85764
rhand -20.4871 22.9074
rfingers 7.12502
rthumb 5.86953 -6.99132
lclavicle -9.85972e-014 4.92986e-014
lhumerus -9.19305 -1.01003 90.8995
lradius 36.6257
lwrist 10.8658
lhand -18.3575 31.5243
lfingers 7.12502
lthumb 7.92531 61.3557
rfemur -65.6389 -20.572 30.9363
rtibia 40.5255
rfoot 23.9785 -5.91946
rtoes 41.6118
lfemur -34.5274 10.224 -46.0047
ltibia 68.89
lfoot -16.7163 -2.06975
ltoes 37.0496
314
root 3.63698 14.6739 4.26692 -8.79 -17.9694 0.666472
lowerback 18.6535 -4.01021 -6.69854
upperback 5.57325 -6.22975 8.3632
thorax -2.57951 -3.35712 14.4124
lowerneck -2.29761 -5.60976 -11.9004
upperneck 27.0418 -7.86759 3.68354
head 9.54847 -4.59438 2.56402
rclavicle 4.05521e-014 -5.24792e-014
rhumerus -49.112 -18.6287 -54.188
rradius 37.427
rwrist -10.6047
rhand -20.6034 22.8427
rfingers 7.12502
rthumb 5.75729 -7.05911
lclavicle 4.05521e-014 -5.24792e-014
lhumerus -6.79429 -3.87085 92.6137
lradius 35.344
lwrist 10.4843
lhand -18.1889 31.1784
lfingers 7.12502
lthumb 8.08804 61.0037
rfemur -66.4093 -19.867 32.083
rtibia 41.5077
rfoot 23.4226 -1.49271
rtoes 35.6314
lfemur -33.0163 10.158 -46.9486
ltibia 68.0642
lfoot -16.2647 -1.97447
ltoes 36.3646
315
root 3.69775 14.7423 4.46041 -9.50632 -17.6578 1.49012
lowerback 18.4962 -4.00099 -7.36208
upperback 6.02335 -6.36481 7.98766
thorax -1.93143 -3.49756 14.3315
lowerneck -2.37197 -5.36431 -11.7479
upperneck 26.4815 -7.61119 4.17365
head 9.34302 -4.39921 2.73666
rclavicle 8.8658e-014 -6.04305e-014
rhumerus -49.4839 -19.856 -54.4613
rradius 36.9089
rwrist -10.8468
rhand -21.1034 22.1423
rfingers 7.12502
rthumb 5.27456 -7.77207
lclavicle 8.8658e-014 -6.04305e-014
lhumerus -4.1033 -6.78471 94.195
lradius 33.9272
lwrist 9.67227
lhand -16.725 31.3617
lfingers 7.12502
lthumb 9.50067 61.1275
rfemur -66.5454 -18.9467 32.557
rtibia 42.8747
rfoot 20.7751 0.0758958
rtoes 31.5909
lfemur -31.1038 10.3481 -47.9912
ltibia 66.9688
lfoot -15.8542 -1.91984
ltoes 36.1714
316
root 3.75128 14.7875 4.66601 -10.0757 -17.3089 1.8492
lowerback 19.0169 -4.11122 -7.83708
upperback 5.91592 -6.61963 7.88647
thorax -2.19666 -3.60717 14.6175
lowerneck -2.77041 -4.98612 -11.634
upperneck 26.9475 -7.07575 4.20369
head 9.52884 -4.14334 2.77395
rclavicle 3.33958e-014 -6.83819e-014
rhumerus -50.3321 -20.2891 -54.2772
rradius 36.4242
rwrist -11.3077
rhand -21.3298 21.6004
rfingers 7.12502
rthumb 5.05589 -8.31924
lclavicle 3.33958e-014 -6.83819e-014
lhumerus -2.4759 -9.21546 95.9503
lradius 32.6815
lwrist 8.7945
lhand -15.2201 32.0449
lfingers 7.12502
lthumb 10.9525 61.7393
rfemur -66.4346 -17.5754 33.0029
rtibia 44.5292
rfoot 18.149 0.0997509
rtoes 27.1424
lfemur -29.2269 10.5588 -48.5473
ltibia 65.7459
lfoot -15.1778 -2.00216
ltoes 37.1577
